<?xml version="1.0" encoding="UTF-8"?>
<svg id="Layer_2" data-name="Layer 2" xmlns="http://www.w3.org/2000/svg" xmlns:xlink="http://www.w3.org/1999/xlink" viewBox="0 0 422.78 391.2">
  <defs>
    <style>
      .cls-1 {
        fill: #4c4c4c;
      }

      .cls-2 {
        fill: #d8d8d8;
      }

      .cls-3 {
        fill: #7c7c7c;
        stroke: #4c4c4c;
        stroke-linecap: round;
        stroke-linejoin: round;
        stroke-width: 6px;
      }

      .cls-4 {
        fill: url(#linear-gradient);
      }
    </style>
    <linearGradient id="linear-gradient" x1="11.59" y1="198.58" x2="411.19" y2="198.58" gradientUnits="userSpaceOnUse">
      <stop offset="0" stop-color="#4dd0e1"/>
      <stop offset=".22" stop-color="#47c7e1"/>
      <stop offset=".57" stop-color="#37aee2"/>
      <stop offset="1" stop-color="#1e88e5"/>
    </linearGradient>
  </defs>
  <g id="Layer_1-2" data-name="Layer 1">
    <rect class="cls-2" x="88.81" y="106.14" width="283.28" height="221.7"/>
    <path class="cls-1" d="M387.72,217.21v-3.64c-.03,.12-.06,.25-.09,.37-.44-10.99-1.85-21.73-4.28-32.06-.01-.06-.03-.12-.05-.18l39.48-41.71c-10.76-27.38-26.85-52.09-46.98-72.85l-44.98,26.58c-17.94-16.06-39.32-28.29-62.87-35.56l-7.62-54.12c-13.97-2.66-28.36-4.03-43.09-4.03s-29.15,1.38-43.12,4.07l-7.64,54.24c-23.43,7.3-44.66,19.49-62.5,35.49,0,0-.01,.01-.02,.02l-45.14-26.67c-20.17,20.84-36.32,45.63-47.12,73.12l39.79,42.04c-2.87,12.37-4.39,25.28-4.39,38.55,0,3.88,.13,7.76,.41,11.58,0,.06,.01,.12,.02,.18L0,250.72c4.31,31.51,15.38,60.88,31.73,86.6l57.08-4.83c.47,.54,.91,1.09,1.39,1.62,4.98,5.58,10.32,10.85,15.93,15.71,28.61,24.73,65.53,40.07,106.04,41.3,1.74,.06,3.53,.09,5.3,.09,.64,0,1.28-.03,1.91-.03-.04,.01-.07,.02-.11,.03h114.22c29.83,0,54.23-24.4,54.23-54.23v-110.21c.07-1.97,.1-3.95,.1-5.92,0-1.22-.08-2.42-.1-3.63Zm-290.14,3.63c0-66.21,53.67-119.88,119.88-119.88s119.88,53.67,119.88,119.88-53.67,119.88-119.88,119.88-119.88-53.67-119.88-119.88Z"/>
    <path class="cls-4" d="M378.06,219v-3.44c-.03,.12-.06,.23-.09,.35-.41-10.39-1.75-20.54-4.05-30.31-.01-.06-.03-.12-.04-.17l37.32-39.43c-10.17-25.88-25.38-49.23-44.4-68.85l-42.52,25.12c-16.95-15.18-37.17-26.74-59.42-33.61l-7.2-51.15c-13.2-2.51-26.81-3.81-40.73-3.81s-27.55,1.3-40.76,3.84l-7.22,51.26c-22.14,6.9-42.21,18.43-59.07,33.54,0,0-.01,.01-.02,.01l-42.67-25.21c-19.07,19.69-34.33,43.13-44.54,69.11l37.61,39.73c-2.71,11.69-4.15,23.9-4.15,36.43,0,3.67,.12,7.34,.39,10.94,0,.06,.01,.12,.02,.17l-44.92,17.12c4.07,29.78,14.54,57.55,29.99,81.85l53.95-4.57c.44,.51,.86,1.03,1.31,1.53,4.71,5.28,9.75,10.26,15.06,14.85,27.05,23.38,61.93,37.87,100.22,39.03,1.64,.06,3.34,.09,5.01,.09,.6,0,1.21-.02,1.81-.03-.03,0-.07,.02-.1,.03h107.95c28.19,0,51.26-23.07,51.26-51.26v-104.16c.07-1.86,.1-3.73,.1-5.6,0-1.15-.07-2.29-.1-3.44Zm-274.24,3.44c0-62.58,50.73-113.31,113.31-113.31s113.31,50.73,113.31,113.31-50.73,113.31-113.31,113.31-113.31-50.73-113.31-113.31Z"/>
    <path class="cls-3" d="M333.33,335.75c0-44.47-36.05-80.51-80.51-80.51s-80.51,36.05-80.51,80.51h161.02Z"/>
    <circle class="cls-3" cx="252.82" cy="219.46" r="35.78"/>
  </g>
</svg>